HIERARCHY
ROOT Hips
{
	OFFSET 0.00000 0.00000 0.00000
	CHANNELS 6 Xposition Yposition Zposition Zrotation Yrotation Xrotation 
	JOINT LHipJoint
	{
		OFFSET 0 0 0
		CHANNELS 3 Zrotation Yrotation Xrotation
		JOINT LeftHip
		{
			OFFSET 1.58161 -1.81893 0.78828
			CHANNELS 3 Zrotation Yrotation Xrotation
			JOINT LeftKnee
			{
				OFFSET 2.53374 -6.96141 0.00000
				CHANNELS 3 Zrotation Yrotation Xrotation
				JOINT LeftAnkle
				{
					OFFSET 2.63509 -7.23986 0.00000
					CHANNELS 3 Zrotation Yrotation Xrotation
					JOINT LeftToe
					{
						OFFSET 0.14115 -0.38781 2.05350
						CHANNELS 3 Zrotation Yrotation Xrotation
						End Site
						{
							OFFSET 0.00000 -0.00000 1.05543
						}
					}
				}
			}
		}
	}
	JOINT RHipJoint
	{
		OFFSET 0 0 0
		CHANNELS 3 Zrotation Yrotation Xrotation
		JOINT RightHip
		{
			OFFSET -1.11138 -1.81893 0.78828
			CHANNELS 3 Zrotation Yrotation Xrotation
			JOINT RightKnee
			{
				OFFSET -2.58392 -7.09926 0.00000
				CHANNELS 3 Zrotation Yrotation Xrotation
				JOINT RightAnkle
				{
					OFFSET -2.66423 -7.31992 0.00000
					CHANNELS 3 Zrotation Yrotation Xrotation
					JOINT RightToe
					{
						OFFSET -0.18831 -0.51739 2.12114
						CHANNELS 3 Zrotation Yrotation Xrotation
						End Site
						{
							OFFSET -0.00000 -0.00000 1.09845
						}
					}
				}
			}
		}
	}
	JOINT lowerback
	{
		OFFSET 0 0 0
		CHANNELS 3 Zrotation Yrotation Xrotation
		JOINT Chest
		{
			OFFSET -0.01511 1.97958 -0.08829
			CHANNELS 3 Zrotation Yrotation Xrotation
			JOINT Chest2
			{
				OFFSET 0.08344 1.97334 -0.04330
				CHANNELS 3 Zrotation Yrotation Xrotation
				JOINT lowerneck
				{
					OFFSET 0 0 0
					CHANNELS 3 Zrotation Yrotation Xrotation
					JOINT Neck
					{
						OFFSET 0.00559 1.76246 0.31246
						CHANNELS 3 Zrotation Yrotation Xrotation
						JOINT Head
						{
							OFFSET -0.07011 1.80354 -0.30524
							CHANNELS 3 Zrotation Yrotation Xrotation
							End Site
							{
								OFFSET -0.02385 1.83547 -0.13906
							}
						}
					}
				}
				JOINT LeftCollar
				{
					OFFSET 0 0 0
					CHANNELS 3 Zrotation Yrotation Xrotation
					JOINT LeftShoulder
					{
						OFFSET 3.20667 1.30156 -0.60240
CHANNELS 3 Zrotation Xrotation Yrotation
						JOINT LeftElbow
						{
OFFSET 0 -4.956630 0.000000
CHANNELS 3 Zrotation Xrotation Yrotation
							JOINT LeftWrist
							{
OFFSET 0 -3.381770 0.000000
CHANNELS 3 Zrotation Xrotation Yrotation
								JOINT lhand
								{
									OFFSET 0 0 0
CHANNELS 3 Zrotation Xrotation Yrotation
									JOINT LFingers
									{
OFFSET 0 -0.662910 0.000000
CHANNELS 3 Zrotation Xrotation Yrotation
										End Site
										{
OFFSET 0 -0.534450 0.000000
										}
									}
								}
								JOINT LThumb
								{
OFFSET 0 0.000000 0.000000
CHANNELS 3 Zrotation Xrotation Yrotation
									End Site
									{
OFFSET 0 -0.542610 0.542610
									}
								}
							}
						}
					}
				}
				JOINT RightCollar
				{
					OFFSET 0 0 0
					CHANNELS 3 Zrotation Yrotation Xrotation
					JOINT RightShoulder
					{
						OFFSET -3.06877 1.34672 -0.60964
CHANNELS 3 Zrotation Xrotation Yrotation
						JOINT RightElbow
						{
OFFSET 0 -5.083650 0.000000
CHANNELS 3 Zrotation Xrotation Yrotation
							JOINT RightWrist
							{
OFFSET 0 -3.359840 0.000000
CHANNELS 3 Zrotation Xrotation Yrotation
								JOINT rhand
								{
									OFFSET 0 0 0
CHANNELS 3 Zrotation Xrotation Yrotation
									JOINT RFingers
									{
OFFSET 0 -0.820760 0.000000
CHANNELS 3 Zrotation Xrotation Yrotation
										End Site
										{
OFFSET 0 -0.661720 0.000000
										}
									}
								}
								JOINT RThumb
								{
OFFSET 0 0.000000 0.000000
CHANNELS 3 Zrotation Xrotation Yrotation
									End Site
									{
OFFSET 0 -0.671820 0.671820
									}
								}
							}
						}
					}
				}
			}
		}
	}
}
MOTION
Frames: 8
Frame Time: 0.008333333333333333
-0.911415 16.594805 -3.733951 15.721279 29.557504 78.748313 0.000000 0.000000 0.000000 8.736882 -23.318578 -72.865359 2.113850 9.099281 26.106261 -0.271589 -14.930309 -7.114492 0.753667 -5.544730 -15.468932 0.000000 0.000000 0.000000 -2.023039 7.855183 -109.335780 -6.598833 -14.984523 47.340189 -0.067647 -3.913079 -7.851847 -1.044277 -6.498645 18.238307 6.594777 3.322106 22.032877 8.554679 5.663657 14.013934 4.463391 2.870719 2.907517 -1.607724 -9.596245 -9.279122 0.899423 -12.949733 -4.803566 0.152665 -6.582210 0.166611 0.000000 0.000000 0.000000 -4.083312 -30.237602 -89.527825 87.023170 -59.966410 57.422269 -57.939539 -151.580194 -54.653038 0.000000 0.000000 0.000000 -7.125000 0.000000 0.000000 -107.918680 53.521542 68.588817 0.000000 0.000000 0.000000 -120.886038 -53.590564 -67.745996 -10.579372 -17.640592 -1.646231 -50.141064 -18.070097 -18.605600 0.000000 0.000000 0.000000 7.125000 0.000000 0.000000 -13.600451 2.929301 -13.272790
-0.912137 16.590985 -3.720759 15.810210 29.592653 78.933184 0.000000 0.000000 0.000000 8.697230 -23.292094 -72.934121 2.090334 9.051682 25.957115 -0.290686 -14.991297 -6.906024 0.725434 -5.437718 -15.162384 0.000000 0.000000 0.000000 -1.997080 7.789878 -109.477930 -6.615226 -14.999087 47.403607 -0.072042 -3.906295 -7.965058 -1.034487 -6.469130 18.151802 6.588580 3.301166 22.005166 8.562923 5.635839 14.010337 4.482735 2.856900 2.916591 -1.651091 -9.606674 -9.235883 0.966682 -12.962542 -4.915567 0.184263 -6.588766 0.132176 0.000000 0.000000 0.000000 -4.068005 -30.194177 -89.361800 86.812864 -59.961546 57.240201 -57.231797 -151.660429 -55.554772 0.000000 0.000000 0.000000 -7.125000 0.000000 0.000000 -108.593361 53.844390 70.201352 0.000000 0.000000 0.000000 -121.125777 -53.589807 -68.199759 -10.509223 -17.532112 -1.625035 -50.411031 -17.748168 -18.597330 0.000000 0.000000 0.000000 7.125000 0.000000 0.000000 -13.758905 2.825511 -13.463597
-0.912117 16.588624 -3.708505 15.931809 29.551196 79.145460 0.000000 0.000000 0.000000 8.641040 -23.325194 -73.026400 2.069337 9.008918 25.823380 -0.311820 -15.002732 -6.614702 0.611534 -4.997766 -13.903654 0.000000 0.000000 0.000000 -2.117532 7.704440 -109.614743 -6.627158 -15.009663 47.449578 -0.074695 -3.938014 -8.068878 -1.031308 -6.459504 18.123714 6.514515 3.288494 21.960595 8.551840 5.604757 14.007075 4.519742 2.838626 2.928593 -1.685742 -9.607618 -9.225703 1.022191 -12.962539 -5.007877 0.209070 -6.588930 0.107800 0.000000 0.000000 0.000000 -4.049025 -30.184415 -89.267332 86.675647 -59.958161 57.121420 -56.506844 -151.409498 -56.024711 0.000000 0.000000 0.000000 -7.125000 0.000000 0.000000 -108.758835 54.123379 70.903370 0.000000 0.000000 0.000000 -121.341905 -53.567658 -68.545699 -10.466756 -17.466299 -1.612235 -50.694615 -17.455887 -18.525170 0.000000 0.000000 0.000000 7.125000 0.000000 0.000000 -13.941122 2.800387 -13.659989
-0.912681 16.587812 -3.696394 16.036964 29.525194 79.321479 0.000000 0.000000 0.000000 8.627617 -23.364588 -73.105322 2.051542 8.972618 25.709783 -0.334836 -15.024250 -6.301051 0.479030 -4.437203 -12.310232 0.000000 0.000000 0.000000 -2.224410 7.637653 -109.710028 -6.634650 -15.016328 47.478484 -0.075684 -3.961378 -8.120338 -1.032849 -6.464033 18.137001 6.454153 3.282054 21.955331 8.547189 5.588754 13.992033 4.549878 2.827611 2.908203 -1.695192 -9.599697 -9.233317 1.041623 -12.951173 -5.028385 0.216785 -6.583193 0.104509 0.000000 0.000000 0.000000 -4.018704 -30.149561 -89.312136 86.696490 -59.958683 57.139512 -55.947276 -150.538450 -55.622515 0.000000 0.000000 0.000000 -7.125000 0.000000 0.000000 -107.979098 54.249350 69.847160 0.000000 0.000000 0.000000 -121.481631 -53.548049 -68.727785 -10.446756 -17.435327 -1.606185 -51.072222 -17.569972 -18.618688 0.000000 0.000000 0.000000 7.125000 0.000000 0.000000 -14.134928 2.508310 -13.939313
-0.913647 16.586758 -3.684363 16.077183 29.618363 79.408502 0.000000 0.000000 0.000000 8.672050 -23.328585 -73.142642 2.038897 8.946538 25.628293 -0.362760 -15.142008 -6.013551 0.405267 -4.085775 -11.318384 0.000000 0.000000 0.000000 -2.126498 7.620354 -109.743836 -6.637635 -15.019050 47.490251 -0.077879 -3.939601 -8.155463 -1.026263 -6.444099 18.078429 6.504997 3.274326 22.005911 8.573357 5.596569 13.966128 4.543644 2.832529 2.856832 -1.648476 -9.582925 -9.166579 1.008430 -12.936509 -5.102324 0.207037 -6.577134 0.065169 0.000000 0.000000 0.000000 -3.955391 -30.052264 -89.708260 87.041859 -59.966850 57.438515 -55.933841 -148.394408 -53.429033 0.000000 0.000000 0.000000 -7.125000 0.000000 0.000000 -105.314412 53.983365 65.185606 0.000000 0.000000 0.000000 -121.516668 -53.557006 -68.885410 -10.446229 -17.434448 -1.606010 -51.419172 -17.836221 -18.851656 0.000000 0.000000 0.000000 7.125000 0.000000 0.000000 -14.273936 2.036227 -14.210830
-0.915111 16.586285 -3.672499 16.062972 29.734931 79.452794 0.000000 0.000000 0.000000 8.709265 -23.228528 -73.177474 2.036789 8.942362 25.615171 -0.373925 -15.287312 -6.010146 0.442188 -4.265864 -11.825999 0.000000 0.000000 0.000000 -1.965943 7.650182 -109.758478 -6.634979 -15.016711 47.480031 -0.080572 -3.919399 -8.204362 -1.015114 -6.410060 17.978870 6.576583 3.269751 22.048112 8.598613 5.608782 13.960883 4.526623 2.841014 2.835248 -1.640756 -9.585983 -9.065076 1.012325 -12.945823 -5.215259 0.216208 -6.582608 0.013549 0.000000 0.000000 0.000000 -3.934227 -29.953059 -89.614106 87.002322 -59.965972 57.404221 -55.202369 -147.983393 -53.749924 0.000000 0.000000 0.000000 -7.125000 0.000000 0.000000 -105.294281 54.246489 65.597932 0.000000 0.000000 0.000000 -121.510884 -53.544473 -68.932848 -10.475738 -17.480200 -1.614878 -51.812336 -17.962414 -18.905156 0.000000 0.000000 0.000000 7.125000 0.000000 0.000000 -14.484797 1.783439 -14.502925
-0.916603 16.588536 -3.660715 16.057618 29.784203 79.511723 0.000000 0.000000 0.000000 8.740467 -23.167274 -73.187102 2.040889 8.950719 25.641360 -0.358982 -15.348786 -6.300510 0.555503 -4.764777 -13.240723 0.000000 0.000000 0.000000 -1.907343 7.677948 -109.775682 -6.633338 -15.015209 47.473624 -0.083153 -3.925551 -8.278839 -1.013042 -6.403795 17.960516 6.571376 3.301603 22.032699 8.627213 5.645247 13.979920 4.556256 2.857211 2.859855 -1.656830 -9.604567 -8.989717 1.050237 -12.972321 -5.291892 0.235330 -6.596187 -0.018402 0.000000 0.000000 0.000000 -3.959055 -29.862237 -89.823960 87.114739 -59.968461 57.501534 -54.778534 -146.573791 -52.728361 0.000000 0.000000 0.000000 -7.125000 0.000000 0.000000 -103.774647 54.233282 63.222162 0.000000 0.000000 0.000000 -121.482756 -53.458133 -68.908522 -10.514573 -17.540353 -1.626610 -52.101808 -17.992591 -18.866428 0.000000 0.000000 0.000000 7.125000 0.000000 0.000000 -14.660071 1.702216 -14.712553
-0.917393 16.592313 -3.649475 16.082466 29.784084 79.610986 0.000000 0.000000 0.000000 8.759483 -23.150241 -73.182733 2.044575 8.958326 25.665088 -0.337702 -15.307670 -6.566615 0.663902 -5.206473 -14.499568 0.000000 0.000000 0.000000 -1.937143 7.679827 -109.818851 -6.638525 -15.019781 47.493523 -0.087399 -3.936908 -8.398243 -1.039059 -6.482638 18.191506 6.537617 3.334730 21.949636 8.646844 5.670375 14.008023 4.599023 2.867360 2.926096 -1.707614 -9.621041 -9.004578 1.098449 -12.988729 -5.278790 0.254823 -6.603644 -0.005133 0.000000 0.000000 0.000000 -3.997110 -29.836157 -89.952922 87.068008 -59.967432 57.461092 -54.285904 -145.788386 -52.343074 0.000000 0.000000 0.000000 -7.125000 0.000000 0.000000 -103.006613 54.326593 62.203475 0.000000 0.000000 0.000000 -121.434942 -53.344610 -68.737982 -10.568943 -17.624468 -1.643064 -52.194874 -17.985521 -18.765256 0.000000 0.000000 0.000000 7.125000 0.000000 0.000000 -14.739635 1.797653 -14.772084
